{"title":"Charlottes Web (2006) (Dutch)(MPEG-4)(IPONE) 2Lions-Team","uid":5162641,"size":1138952889,"categoryP":"video","categoryS":"handheld","magnet":"?xt=urn:btih:7054d4cb2ca543d9f120202a6f176059ad09e1a0&amp;dn=Charlottes+Web+%282006%29+%28Dutch%29%28MPEG-4%29%28IPONE%29+2Lions-Team&amp;tr=udp%3A%2F%2Ftracker.openbittorrent.com%3A80&amp;tr=udp%3A%2F%2Fopen.demonii.com%3A1337&amp;tr=udp%3A%2F%2Ftracker.coppersurfer.tk%3A6969&amp;tr=udp%3A%2F%2Fexodus.desync.com%3A6969","seeders":1,"leechers":0,"uploader":"Pioen","files":-1,"time":1258232913,"description":"Charlottes Web (2006) (Dutch)(MPEG-4)(IPONE)\n\n\n\nVerenigde Staten\nFamilie / Fantasy\n97 minuten\n\ngeregisseerd door Gary Winick\nmet Dakota Fanning, de stemmen van Julia Roberts en Kathy Bates\n\nHet varkentje Wilbur wordt getergd door de zenuwen nu het einde van het seizoen nadert op de boerderij. Hij heeft sterke vermoedens dat hij nu op de eettafel zal belanden. Wilbur schakelt de hulp in van Charlotte, een spin die in zijn hok leeft, om zijn leven veilig te stellen. Ze bedenken een plan waarbij iedereen zal weten dat Wilbur niet zomaar een varkentje is en derhalve gered moet worden.\n\nEnglish\n\nWilbur the pig is scared of the end of the season, because he knows that come that time, he will end up on the dinner table. He hatches a plan with Charlotte, a spider that lives in his pen, to ensure that this will never happen. \n\n\nDVD Info:\nBron: DVD 9 Pal\nAudio : Dutch\nFormaat : MPEG-4\nGenre: Fantasiefilm / Familiefilm\n\nCode\nFormat                           : MPEG-4\nFormat profile                   : Base Media\nCodec ID                         : isom\nFile size                        : 1.06 GiB\nDuration                         : 1h 33mn\nOverall bit rate                 : 1 632 Kbps\n\n\nVideo\nID                               : 1\nFormat                           : MPEG-4 Visual\nFormat profile                   : Simple@L1\nFormat settings, BVOP            : No\nFormat settings, QPel            : No\nFormat settings, GMC             : No warppoints\nFormat settings, Matrix          : Default (H.263)\nCodec ID                         : 20\nDuration                         : 1h 33mn\nBit rate mode                    : Variable\nBit rate                         : 1 500 Kbps\nWidth                            : 720 pixels\nHeight                           : 406 pixels\nDisplay aspect ratio             : 16/9\nFrame rate mode                  : Constant\nFrame rate                       : 25.000 fps\nResolution                       : 24 bits\nColorimetry                      : 4:2:0\nScan type                        : Progressive\nBits/(Pixel*Frame)               : 0.205\nStream size                      : 998 MiB (92%)\nWriting library                  : Lavc51.40.4\n\n\nAudio\nID                               : 2\nFormat                           : AAC\nFormat/Info                      : Advanced Audio Codec\nFormat version                   : Version 4\nFormat profile                   : LC\nFormat settings, SBR             : No\nCodec ID                         : 40\nDuration                         : 1h 33mn\nBit rate mode                    : Variable\nBit rate                         : 128 Kbps\nChannel(s)                       : 2 channels\nChannel positions                : L R\nSampling rate                    : 48.0 KHz\nResolution                       : 16 bits\nStream size                      : 85.1 MiB (8%) \n\nWeblink : http://moviemeter.nl/film/31033 \nWeblink : http://www.imdb.com/title/tt0413895\n\n\n***************************************** \n\n\nBrought to you by \nPioen\n2Lions Team\n\n\n\n\n2Lions-Team for all your Dutch MOVIES and more \n\n*****************************************\n\nDON T HIT AND RUN Niet gelijk afhaken als de film binnen is blijf seeden.","torrent":{"xt":"urn:btih:7054d4cb2ca543d9f120202a6f176059ad09e1a0","amp;dn":"Charlottes+Web+%282006%29+%28Dutch%29%28MPEG-4%29%28IPONE%29+2Lions-Team","amp;tr":["udp%3A%2F%2Ftracker.openbittorrent.com%3A80","udp%3A%2F%2Fopen.demonii.com%3A1337","udp%3A%2F%2Ftracker.coppersurfer.tk%3A6969","udp%3A%2F%2Fexodus.desync.com%3A6969"],"infoHash":"7054d4cb2ca543d9f120202a6f176059ad09e1a0","infoHashBuffer":{"type":"Buffer","data":[112,84,212,203,44,165,67,217,241,32,32,42,111,23,96,89,173,9,225,160]},"announce":[],"urlList":[]}}